<svg width="64" height="64" xmlns="http://www.w3.org/2000/svg">
 <title/>

 <g>
  <title>background</title>
  <rect fill="none" id="canvas_background" height="402" width="582" y="-1" x="-1"/>
 </g>
 <g>
  <title>Layer 1</title>
  <path fill="#ffffff" id="svg_1" d="m31.29,55.22l0.74,0.68l1.41,-1.41l5.37,-5.37l-17,-17l17.07,-17.12l-5.37,-5.39l0,0l-0.67,-0.67l-0.74,-0.74l0,0l-0.1,-0.1l-23.91,23.9l23.2,23.22zm0.81,-44.22l4,4l-17.1,17.08l17,17l-4,4l-21,-21l21.1,-21.08z"/>
  <path fill="#ffffff" id="svg_2" d="m51.398212,27.498212l-5.38,-5.38l-13.15,13.16l13.05,13.06l5.38,-5.37l0,0l0.37,-0.37l1,-1l0,0l6.41,-6.43l-6.27,-6.27l-1.41,-1.4zm-1.52,14.05l-4,4l-10.19,-10.27l10.33,-10.33l4,4l-6.37,6.37l6.23,6.23zm6.38,-6.38l-5,5l-4.86,-4.86l5,-5l4.86,4.86z"/>
 </g>
</svg>